<svg width="50" height="50" viewBox="0 0 50 50" fill="none" xmlns="http://www.w3.org/2000/svg">
<path d="M41.1133 9.61953C35.2984 7.40312 28.9555 4.52813 19.8734 1.5625H1.5625C14.2344 14.0461 6.46719 35.9523 19.1406 48.4375C28.4633 42.3203 39.1133 36.2445 48.4375 30.1273C42.8328 24.6055 42.3609 16.6773 41.1133 9.61953ZM19.3555 46.5477C14.075 40.7336 12.9688 32.9797 11.8008 24.7914C10.7109 17.1562 9.58984 9.29219 4.80234 3.02734H19.5641C20.5922 3.64766 22.5992 4.96875 23.1953 6.16719C19.3062 6.79766 14.9633 7.54453 11.1133 8.16562C11.4203 8.76094 11.7 9.36719 11.9531 9.98203C15.7594 9.28672 20.0555 8.46562 23.9008 7.76016C24.2976 8.78364 24.628 9.83165 24.8898 10.8977C21.1117 11.7266 16.8219 12.5555 13.0977 13.3844C13.2711 14.0281 13.4266 14.6773 13.5656 15.3328C17.2609 14.425 21.5219 13.5172 25.2742 12.6094C25.3531 12.9992 25.4281 13.3898 25.4969 13.7828C30.5344 12.4547 34.5562 10.743 39.8125 10.7047C39.9336 11.4211 40.0477 12.1445 40.1672 12.8992C41.0633 18.5617 42.0703 24.9156 46.1867 29.843C41.9523 32.5813 37.425 35.3445 33.032 38.0266C28.4656 40.8156 23.7531 43.6922 19.3555 46.5477Z" fill="black"/>
<path d="M14.1867 18.9203C14.2812 19.5914 14.3641 20.2656 14.4422 20.943L37.5672 13.7391C37.5103 13.2403 37.4468 12.7423 37.3765 12.2453C29.6461 14.4695 21.9164 16.6961 14.1867 18.9203Z" fill="black"/>
<path d="M17.757 39.1531C18.0156 39.7672 18.3016 40.3727 18.6141 40.9656C22.2875 38.893 25.9594 36.8195 29.6305 34.7469C29.36 34.2328 29.1119 33.7073 28.8867 33.1719C25.1773 35.1672 21.468 37.1594 17.757 39.1531Z" fill="black"/>
</svg>
